# xmcd
#
# Track frame offsets:
# 150
# 13221
# 27103
# 42626
# 57121
# 65117
# 77495
# 94296
# 116872
# 133360
# 143787
# 155113
#
# Disc length: 2234 seconds
#
#
# Revision: 0
# Processed by: cddbd v1.5.1PL0 Copyright (c) Steve Scherf et al.
# Submitted via: FreeRIP 2.92 
#
DISCID=b308b80c
DTITLE=Paterson Hood - Killers and Stars
DYEAR=2004
DGENRE=Country
TTITLE0=Uncle Disney
TTITLE1=Rising Son
TTITLE2=The Assassin
TTITLE3=Pay No Attention To Alice
TTITLE4=Belinda Carlisle Diet
TTITLE5=Fire
TTITLE6=Hobo
TTITLE7=Miss Me Gone
TTITLE8=Phil's Transplant
TTITLE9=Frances Farmer
TTITLE10=Old Timer's Disease
TTITLE11=Cat Power
EXTD=Personnel: Patterson Hood (vocals, guitar).\n\n
EXTT0=
EXTT1=
EXTT2=
EXTT3=
EXTT4=
EXTT5=
EXTT6=
EXTT7=
EXTT8=
EXTT9=
EXTT10=
EXTT11=
PLAYORDER=
